<svg width="419" height="488" viewBox="0 0 419 488" fill="none" xmlns="http://www.w3.org/2000/svg">
<path d="M190.561 476.243C295.805 476.243 381.122 471.053 381.122 464.652C381.122 458.25 295.805 453.061 190.561 453.061C85.317 453.061 0 458.25 0 464.652C0 471.053 85.317 476.243 190.561 476.243Z" fill="#CED3E6"/>
<path d="M178.68 141.867L197.929 212.255L191.061 204.348C193.6 205.703 196.547 206.742 199.797 207.466C203.047 208.203 206.599 208.624 210.309 208.808C214.019 209.005 217.887 208.966 221.847 208.808C225.808 208.637 229.847 208.348 233.952 207.992H233.978C240.03 207.479 245.358 211.966 245.871 218.018C246.358 223.793 242.267 228.898 236.649 229.819C232.412 230.49 228.11 231.135 223.703 231.648C219.282 232.161 214.756 232.543 210.072 232.648C205.388 232.753 200.534 232.569 195.508 231.845C190.495 231.122 185.298 229.806 180.22 227.622C176.97 226.214 174.655 223.557 173.602 220.439L173.352 219.702L150.262 150.485C147.67 142.709 151.867 134.289 159.656 131.697C167.432 129.105 175.852 133.302 178.444 141.091C178.523 141.328 178.615 141.617 178.68 141.867Z" fill="#EA9B7A"/>
<path d="M186.088 397.028C185.799 397.028 185.509 396.975 185.22 396.87L84.3873 360.518C83.0716 360.045 82.3875 358.584 82.8611 357.269C83.3347 355.953 84.7951 355.256 86.1108 355.742L186.943 392.094C188.259 392.568 188.956 394.028 188.469 395.344C188.114 396.383 187.128 397.028 186.088 397.028Z" fill="#C77E2E"/>
<path d="M81.0603 397.027C80.0209 397.027 79.0473 396.383 78.6658 395.343C78.1922 394.028 78.8763 392.567 80.192 392.08L182.222 355.123C183.537 354.65 184.998 355.334 185.485 356.649C185.958 357.965 185.274 359.426 183.958 359.912L81.9286 396.869C81.6392 396.975 81.3498 397.027 81.0603 397.027Z" fill="#C77E2E"/>
<path d="M195.063 461.995C192.918 461.995 191.05 460.403 190.747 458.219L172.538 322.219H96.322L78.3895 458.219C78.0738 460.601 75.8898 462.285 73.5084 461.969C71.1271 461.653 69.443 459.469 69.7588 457.088L88.1912 317.325C88.4807 315.154 90.3226 313.536 92.5066 313.536H176.354C178.538 313.536 180.38 315.154 180.669 317.312L199.391 457.075C199.707 459.456 198.036 461.653 195.655 461.969C195.444 461.982 195.26 461.995 195.063 461.995Z" fill="#FAAF3A"/>
<path d="M152.068 317.877H97.6131C80.3647 317.877 61.8928 308.431 59.2351 291.393C55.696 268.592 54.8145 246.529 55.8013 226.268C56.9196 203.362 67.8659 182.048 85.8642 167.839C85.8642 167.839 96.7447 215.242 83.0618 280.67C88.2982 305.51 152.068 317.877 152.068 317.877Z" fill="#FAAF3A"/>
<path d="M140.711 39.8643C140.711 39.8643 134.238 24.2605 117.095 27.2076C105.123 29.2601 100.018 44.1797 100.715 67.2301C101.741 100.766 90.4004 120.975 90.4004 120.975L105.452 124.396C105.465 124.383 143.79 66.8881 140.711 39.8643Z" fill="#39393B"/>
<path d="M278.032 403.724H253.706C253.706 403.724 248.075 376.726 246.193 361.596C244.299 346.453 243.325 310.575 243.325 310.575C243.325 310.575 223.945 316.877 183.37 314.495C93.4709 309.246 127.56 243.199 127.56 243.199C130.599 247.396 149.202 244.489 161.925 246.489C200.961 250.238 234.8 265.553 255.113 274.315C260.008 276.42 264.349 278.657 268.165 281.012C273.059 284.025 276.125 293.195 277.98 305.233C283.519 341.427 278.032 403.724 278.032 403.724Z" fill="#39393B"/>
<path d="M256.745 390.711C256.337 390.711 255.982 390.421 255.89 390.014C252.377 372.647 251.206 351.03 250.259 333.664C249.47 319.257 248.733 305.653 246.878 304.022C245.378 302.693 239.155 303.732 231.287 305.035C215.618 307.64 191.936 311.56 165.833 305.495C151.611 302.18 141.151 295.273 134.757 284.958C123.718 267.17 128.757 245.106 128.81 244.883C128.915 244.409 129.389 244.12 129.863 244.238C130.336 244.343 130.626 244.817 130.507 245.29C130.455 245.501 125.6 266.881 136.257 284.05C142.401 293.957 152.492 300.601 166.241 303.798C192.015 309.797 215.486 305.903 231.024 303.324C240.326 301.785 245.944 300.851 248.062 302.719C250.351 304.745 250.996 314.692 252.022 333.572C252.969 350.886 254.14 372.423 257.627 389.672C257.719 390.145 257.416 390.606 256.943 390.698C256.851 390.711 256.798 390.711 256.745 390.711Z" fill="#585859"/>
<path d="M278.503 391.173H278.49L251.439 390.594C250.953 390.581 250.571 390.186 250.584 389.699C250.597 389.213 250.992 388.831 251.479 388.844L278.529 389.423C279.016 389.436 279.397 389.831 279.384 390.318C279.371 390.792 278.976 391.173 278.503 391.173Z" fill="#585859"/>
<path d="M277.369 434.879H260.2L256.898 414.75L255.082 403.724H276.409L276.751 414.75L277.369 434.879Z" fill="#EA9B7A"/>
<path d="M277.374 434.879H260.205L257.744 419.894L256.902 414.75H276.756L276.927 420.078L277.374 434.879Z" fill="#FAAF3A"/>
<path d="M276.927 420.078L257.744 419.894L256.902 414.75H276.756L276.927 420.078Z" fill="#C77E2E"/>
<path d="M319.736 461.994H254.808C254.322 461.112 254.059 459.875 253.953 458.389C253.545 452.889 255.295 444.127 256.15 438.601C256.256 437.956 256.348 437.351 256.414 436.812C256.532 435.891 256.611 435.115 256.611 434.549C256.611 430.036 260.597 430.812 260.597 430.812C267.163 437.259 274.609 427.589 278.951 430.76C278.951 430.76 279.122 430.891 279.53 431.194C279.898 431.483 280.451 431.931 281.214 432.575C282.319 433.496 283.871 434.838 285.977 436.733C291.134 441.377 299.896 444.429 307.356 447.548C308.303 447.942 309.185 448.35 310.014 448.745C310.632 449.047 311.224 449.35 311.777 449.639C317.881 452.929 319.815 456.086 320.263 458.376C320.697 460.586 319.736 461.994 319.736 461.994Z" fill="#7E3AF2"/>
<path d="M311.789 449.654C310.119 450.982 306.395 453.653 303.409 453.653C303.277 453.653 303.146 453.653 303.014 453.64C300.909 453.469 293.173 449.667 286.871 446.207C283.266 444.22 279.964 442.273 277.595 440.707C273.714 438.142 273.03 437.168 272.885 436.484C272.32 433.918 276.556 432.142 279.529 431.208C279.898 431.497 280.45 431.945 281.213 432.589C277.53 433.589 274.49 435.168 274.635 436.076C275.004 436.839 278.845 439.76 288.029 444.799C295.041 448.641 301.685 451.732 303.159 451.864C305.159 452.022 308.092 450.206 310.013 448.772C310.645 449.062 311.237 449.364 311.789 449.654Z" fill="#5521B5"/>
<path d="M319.738 461.995H254.81C254.323 461.113 254.06 459.877 253.955 458.39H320.278C320.699 460.587 319.738 461.995 319.738 461.995Z" fill="#5521B5"/>
<path d="M261.428 461.997H259.494C261.414 459.8 263.217 456.419 262.98 451.603C262.664 445.183 258.823 440.867 256.139 438.605C256.244 437.96 256.336 437.355 256.402 436.815C259.283 439.012 264.138 443.841 264.519 451.524C264.769 456.129 263.256 459.563 261.428 461.997Z" fill="#5521B5"/>
<path d="M284.882 440.576C284.409 440.576 283.961 440.247 283.843 439.76C283.698 439.181 284.053 438.602 284.619 438.458L288.671 437.445C289.25 437.3 289.829 437.655 289.974 438.221C290.119 438.8 289.763 439.379 289.198 439.523L285.145 440.536C285.053 440.563 284.961 440.576 284.882 440.576Z" fill="white"/>
<path d="M280.865 437.207C280.391 437.207 279.944 436.878 279.825 436.392C279.681 435.813 280.036 435.234 280.602 435.089L284.654 434.076C285.233 433.931 285.812 434.287 285.956 434.852C286.101 435.431 285.746 436.01 285.18 436.142L281.128 437.155C281.036 437.194 280.944 437.207 280.865 437.207Z" fill="white"/>
<path d="M288.933 442.931C288.459 442.931 288.012 442.602 287.894 442.115C287.749 441.536 288.104 440.957 288.67 440.826L292.722 439.813C293.301 439.668 293.88 440.023 294.025 440.589C294.169 441.168 293.814 441.747 293.248 441.892L289.196 442.905C289.104 442.931 289.025 442.931 288.933 442.931Z" fill="white"/>
<path d="M292.982 445.207C292.495 445.207 292.061 444.878 291.943 444.392C291.798 443.813 292.153 443.234 292.719 443.089L296.771 442.076C297.35 441.931 297.929 442.287 298.074 442.852C298.218 443.431 297.863 444.01 297.297 444.142L293.245 445.155C293.166 445.194 293.074 445.207 292.982 445.207Z" fill="white"/>
<path d="M297.412 447.297C296.938 447.297 296.491 446.968 296.372 446.481C296.227 445.902 296.583 445.323 297.148 445.192L301.201 444.179C301.78 444.034 302.358 444.389 302.503 444.955C302.648 445.534 302.293 446.113 301.727 446.257L297.675 447.27C297.583 447.284 297.491 447.297 297.412 447.297Z" fill="white"/>
<path d="M302.214 449.086C301.741 449.086 301.293 448.757 301.175 448.271C301.03 447.692 301.385 447.113 301.951 446.968L306.003 445.955C306.582 445.81 307.161 446.165 307.306 446.731C307.451 447.31 307.095 447.889 306.53 448.021L302.477 449.034C302.385 449.073 302.306 449.086 302.214 449.086Z" fill="white"/>
<path d="M82.5458 222.254C82.5458 222.254 81.7827 227.503 88.8084 228.977L162.065 231.424C162.065 231.424 167.011 228.937 166.117 222.806C166.117 222.793 135.186 205.413 82.5458 222.254Z" fill="#084FC7"/>
<path d="M163.065 246.476C125.042 267.395 83.5195 250.554 83.5195 250.554C85.5457 245.015 87.0587 238.766 88.1507 233.082C89.4137 226.465 90.1242 220.623 90.4531 217.558C106.623 216.676 146.277 214.979 161.815 218.663L161.933 224.886L163.065 246.476Z" fill="#EA9B7A"/>
<path d="M134.972 236.451C134.695 238.412 133.801 239.911 132.998 239.793C132.182 239.675 131.761 237.991 132.038 236.03C132.314 234.07 133.209 232.57 134.011 232.688C134.827 232.807 135.248 234.491 134.972 236.451Z" fill="#D96C63"/>
<path d="M161.919 224.886C145.723 223.899 113.871 223.557 88.1367 233.069C89.3998 226.452 90.1102 220.61 90.4391 217.545C106.609 216.663 146.263 214.966 161.801 218.65L161.919 224.886Z" fill="#D96C63"/>
<path d="M179.983 194.797C179.826 195.271 179.641 195.705 179.431 196.113C179.352 196.271 179.273 196.428 179.194 196.573C177.155 200.349 174.01 203.625 171.366 205.954C170.813 206.441 170.287 206.875 169.8 207.269C168.827 208.059 167.998 208.677 167.432 209.085C166.906 209.453 166.603 209.651 166.603 209.651C166.603 209.69 166.603 209.717 166.59 209.769C166.564 210.046 166.537 210.348 166.511 210.664C166.419 211.861 166.34 213.282 166.287 214.913C166.235 216.216 166.195 217.65 166.169 219.203C166.156 220.347 166.13 221.544 166.116 222.781C144.632 213.177 100.373 219.242 82.5454 222.242C82.8743 220.702 83.1637 219.189 83.44 217.716C84.7031 210.914 85.4135 204.796 85.6898 199.31C86.1108 191.153 85.4004 178.891 83.6637 166.221C83.5584 165.392 83.44 164.576 83.3216 163.76C83.2427 163.221 83.1637 162.695 83.0716 162.155C82.4664 158.182 81.756 154.196 80.9534 150.328C77.4406 133.461 79.9009 115.765 97.0045 113.673C98.2413 113.515 99.4648 113.384 100.662 113.252C108.714 112.397 115.345 112.094 117.187 112.029C117.529 112.015 117.7 112.015 117.7 112.015L150.749 121.62L153.894 122.528C155.696 123.106 157.367 123.672 158.92 124.225C159.578 124.462 160.222 124.698 160.827 124.922C162.433 125.527 163.88 126.106 165.209 126.698C167.853 127.869 169.945 129.014 171.603 130.185C178.852 135.329 177.734 141.144 177.55 152.63C177.55 152.683 177.55 152.735 177.55 152.788C177.55 152.933 177.55 153.077 177.55 153.235C177.55 153.301 177.55 153.367 177.55 153.432C177.55 153.906 177.55 154.367 177.55 154.84C177.563 156.327 177.615 157.8 177.707 159.274C177.826 161.445 178.023 163.603 178.26 165.708C178.352 166.55 178.444 167.392 178.549 168.234C178.642 169.023 178.747 169.799 178.852 170.576C180.141 180.627 181.786 189.442 179.983 194.797Z" fill="#7E3AF2"/>
<path d="M177.538 152.787C177.538 152.932 177.538 153.077 177.538 153.235C177.538 153.3 177.538 153.366 177.538 153.432C177.538 153.906 177.538 154.366 177.538 154.84L170.592 159.195C170.381 159.326 170.144 159.366 169.907 159.326C169.644 159.287 169.407 159.129 169.25 158.892C168.96 158.432 169.105 157.839 169.552 157.55L176.92 152.932C177.104 152.814 177.328 152.774 177.538 152.787Z" fill="#4A1D96"/>
<path d="M131.754 189.994C131.491 189.994 131.228 189.889 131.031 189.678C130.675 189.284 130.702 188.665 131.096 188.31L137.556 182.495C137.951 182.14 138.569 182.166 138.925 182.561C139.28 182.955 139.254 183.574 138.859 183.929L132.399 189.744C132.215 189.902 131.978 189.994 131.754 189.994Z" fill="#4A1D96"/>
<path d="M178.829 170.575L174.409 174.562C174.225 174.733 173.988 174.812 173.764 174.812C173.501 174.812 173.238 174.706 173.04 174.496C172.685 174.101 172.711 173.483 173.106 173.127L178.527 168.246C178.619 169.023 178.724 169.799 178.829 170.575Z" fill="#4A1D96"/>
<path d="M118.649 166.603C118.504 166.379 118.438 166.103 118.504 165.826C118.622 165.3 119.149 164.984 119.675 165.103L128.135 167.103C128.661 167.221 128.977 167.747 128.858 168.273C128.74 168.8 128.214 169.115 127.687 168.997L119.228 166.997C118.978 166.945 118.78 166.8 118.649 166.603Z" fill="#4A1D96"/>
<path d="M88.4554 183.206C88.1923 183.206 87.9292 183.101 87.7318 182.89C87.3766 182.495 87.4029 181.877 87.7976 181.522L94.2575 175.707C94.6522 175.351 95.2706 175.378 95.6258 175.772C95.981 176.167 95.9547 176.786 95.56 177.141L89.1001 182.956C88.9159 183.127 88.6923 183.206 88.4554 183.206Z" fill="#4A1D96"/>
<path d="M163.656 181.825C163.735 181.575 163.932 181.351 164.182 181.246C164.669 181.035 165.248 181.259 165.458 181.746L168.932 189.719C169.142 190.205 168.918 190.784 168.432 190.995C167.945 191.205 167.366 190.982 167.155 190.495L163.682 182.522C163.59 182.285 163.59 182.035 163.656 181.825Z" fill="#4A1D96"/>
<path d="M179.985 194.797C179.828 195.271 179.643 195.705 179.433 196.113C179.354 196.271 179.275 196.428 179.196 196.573L174.473 195.086C174.236 195.008 174.052 194.85 173.933 194.652C173.802 194.429 173.749 194.139 173.841 193.876C173.999 193.363 174.552 193.087 175.052 193.245L179.985 194.797Z" fill="#4A1D96"/>
<path d="M153.305 195.494C153.568 195.468 153.844 195.547 154.055 195.744C154.45 196.099 154.476 196.718 154.121 197.112L148.279 203.546C147.924 203.941 147.306 203.967 146.911 203.612C146.516 203.256 146.49 202.638 146.845 202.243L152.687 195.81C152.858 195.626 153.081 195.52 153.305 195.494Z" fill="#4A1D96"/>
<path d="M149.87 180.653C149.607 180.613 149.37 180.455 149.213 180.219C148.923 179.771 149.068 179.166 149.515 178.877L156.883 174.259C157.33 173.969 157.935 174.114 158.225 174.561C158.514 175.009 158.37 175.614 157.922 175.903L150.554 180.521C150.344 180.653 150.094 180.692 149.87 180.653Z" fill="#4A1D96"/>
<path d="M154.57 152.656C154.741 152.853 154.846 153.116 154.806 153.406C154.754 153.932 154.267 154.327 153.741 154.261L145.097 153.314C144.57 153.261 144.176 152.774 144.242 152.248C144.294 151.722 144.781 151.327 145.307 151.393L153.951 152.34C154.188 152.367 154.412 152.485 154.57 152.656Z" fill="#4A1D96"/>
<path d="M142.003 133.908C142.069 133.644 142.24 133.421 142.49 133.289C142.964 133.039 143.556 133.21 143.806 133.684L147.924 141.341C148.174 141.815 148.003 142.407 147.529 142.657C147.056 142.907 146.464 142.736 146.214 142.262L142.096 134.605C141.964 134.381 141.938 134.131 142.003 133.908Z" fill="#4A1D96"/>
<path d="M171.379 205.967C170.827 206.454 170.301 206.888 169.814 207.282L168.682 204.388C168.59 204.151 168.59 203.914 168.682 203.691C168.774 203.441 168.972 203.23 169.235 203.125C169.735 202.928 170.301 203.178 170.498 203.678L171.379 205.967Z" fill="#4A1D96"/>
<path d="M91.9125 191.232C91.7809 190.995 91.7546 190.718 91.8599 190.442C92.0441 189.942 92.5966 189.679 93.0966 189.863L101.28 192.81C101.78 192.995 102.043 193.547 101.859 194.047C101.675 194.547 101.122 194.81 100.622 194.626L92.4388 191.679C92.2019 191.613 92.0177 191.442 91.9125 191.232Z" fill="#4A1D96"/>
<path d="M95.9152 202.296C96.1783 202.296 96.4415 202.414 96.6388 202.625C96.994 203.019 96.9546 203.638 96.5599 203.993L90.0473 209.755C89.6526 210.111 89.0343 210.071 88.6791 209.677C88.3238 209.282 88.3633 208.663 88.758 208.308L95.2705 202.546C95.4547 202.375 95.6915 202.296 95.9152 202.296Z" fill="#4A1D96"/>
<path d="M107.716 211.439C107.874 211.65 107.966 211.926 107.913 212.202C107.821 212.729 107.321 213.084 106.795 212.992L98.2297 211.531C97.7035 211.439 97.3482 210.939 97.4403 210.413C97.5324 209.887 98.0324 209.532 98.5586 209.624L107.124 211.084C107.36 211.124 107.571 211.255 107.716 211.439Z" fill="#4A1D96"/>
<path d="M114.887 130.053C114.821 129.803 114.848 129.513 115.006 129.277C115.295 128.829 115.9 128.698 116.348 128.987L123.649 133.697C124.097 133.987 124.228 134.592 123.939 135.039C123.649 135.486 123.044 135.618 122.597 135.329L115.295 130.619C115.084 130.474 114.94 130.276 114.887 130.053Z" fill="#4A1D96"/>
<path d="M164.722 135.604C164.958 135.473 165.235 135.447 165.511 135.539C166.011 135.723 166.274 136.275 166.103 136.775L163.195 144.972C163.011 145.472 162.459 145.735 161.959 145.564C161.459 145.38 161.196 144.827 161.367 144.327L164.274 136.131C164.353 135.907 164.524 135.723 164.722 135.604Z" fill="#4A1D96"/>
<path d="M160.816 124.934L156.329 130.697C156 131.118 155.395 131.197 154.974 130.868C154.553 130.539 154.474 129.934 154.803 129.513L158.908 124.25C159.566 124.461 160.21 124.698 160.816 124.934Z" fill="#4A1D96"/>
<path d="M116.915 204.441C117.007 204.717 117.244 204.914 117.507 204.967C117.638 204.993 117.783 204.993 117.915 204.941C118.059 204.888 132.124 200.336 146.912 206.467C154.424 209.585 161.108 210.769 166.515 210.664C166.542 210.348 166.568 210.059 166.594 209.769C166.594 209.73 166.607 209.69 166.607 209.664C166.607 209.664 166.91 209.467 167.436 209.098C162.121 209.361 155.319 208.23 147.517 205.006C132.163 198.639 118.007 203.243 117.415 203.441C117.007 203.586 116.783 204.033 116.915 204.441Z" fill="#4A1D96"/>
<path d="M150.743 121.619C148.888 124.487 145.072 127.737 137.336 127.184C126.666 126.408 119.64 116.225 117.193 112.041C117.522 112.028 117.706 112.028 117.706 112.028L150.743 121.619Z" fill="#4A1D96"/>
<path d="M139.395 140.513C139.711 140.578 140.027 140.618 140.343 140.644C143.29 140.881 145.684 140.026 147.447 138.105C152.578 132.5 150.473 119.712 150.381 119.173C150.302 118.738 149.894 118.449 149.473 118.528C149.039 118.607 148.75 119.015 148.829 119.436C148.855 119.567 150.894 132 146.29 137.039C144.855 138.605 142.948 139.276 140.487 139.079C130.146 138.25 118.555 111.976 118.437 111.713C118.266 111.318 117.792 111.134 117.398 111.305C117.003 111.476 116.819 111.95 116.99 112.344C117.437 113.436 128.436 138.289 139.395 140.513Z" fill="white"/>
<path d="M171.603 130.183C170.919 137.762 172.787 150.274 177.682 159.273C177.563 157.339 177.511 155.378 177.537 153.431C177.537 153.365 177.537 153.3 177.537 153.234C177.537 153.036 177.55 152.839 177.55 152.642C177.721 141.156 178.839 135.328 171.603 130.183Z" fill="#EA9B7A"/>
<path d="M110.808 143.525C107.019 158.155 93.1522 169.891 83.6794 166.234C83.561 165.418 83.4558 164.589 83.3374 163.773C83.2584 163.234 83.1795 162.708 83.0874 162.168C82.4822 158.195 81.7717 154.208 80.9692 150.34C77.4563 133.473 79.9298 115.778 97.0203 113.686C98.257 113.528 99.4806 113.396 100.678 113.265C109.216 116.909 115.176 126.685 110.808 143.525Z" fill="#EA9B7A"/>
<path d="M112.757 132.368L134.965 213.597L127.045 204.466C129.979 206.018 133.373 207.229 137.136 208.071C140.886 208.913 144.991 209.4 149.267 209.623C153.556 209.847 158.016 209.808 162.581 209.623C167.147 209.439 171.817 209.097 176.554 208.689H176.58C183.566 208.097 189.71 213.268 190.302 220.254C190.868 226.911 186.145 232.818 179.645 233.871C174.764 234.647 169.791 235.384 164.699 235.976C159.608 236.568 154.385 237.002 148.964 237.134C143.557 237.252 137.952 237.055 132.163 236.213C126.387 235.371 120.388 233.871 114.52 231.332C110.77 229.714 108.1 226.635 106.889 223.043L106.613 222.201L79.9575 142.314C76.9578 133.341 81.8126 123.632 90.7854 120.632C99.7582 117.632 109.468 122.487 112.468 131.46C112.586 131.749 112.678 132.091 112.757 132.368Z" fill="#EA9B7A"/>
<path d="M122.7 211.006C122.476 211.006 122.253 210.887 122.134 210.677C121.95 210.361 122.068 209.966 122.384 209.782C122.595 209.664 127.449 206.927 132.528 206.532C132.896 206.506 133.212 206.769 133.238 207.138C133.265 207.506 133.002 207.822 132.633 207.848C127.857 208.216 123.081 210.9 123.042 210.927C122.924 210.979 122.805 211.006 122.7 211.006Z" fill="#D96C63"/>
<path d="M130.78 208.071C130.661 208.071 130.543 208.045 130.438 207.979C127.372 206.124 123.662 205.835 123.623 205.835C123.254 205.809 122.991 205.493 123.017 205.138C123.044 204.769 123.346 204.506 123.715 204.532C123.873 204.545 127.78 204.835 131.109 206.861C131.425 207.045 131.517 207.453 131.332 207.769C131.214 207.953 130.99 208.071 130.78 208.071Z" fill="#D96C63"/>
<path d="M150.577 165.26C160.405 167.247 164.708 157.09 164.747 156.985C164.918 156.577 164.721 156.116 164.313 155.959C163.905 155.788 163.445 155.985 163.287 156.393C163.129 156.774 159.419 165.444 150.893 163.721C141.934 161.905 125.225 144.289 125.067 144.104C124.764 143.789 124.264 143.775 123.948 144.078C123.633 144.381 123.619 144.881 123.922 145.196C124.606 145.92 141.144 163.339 150.577 165.26Z" fill="#4A1D96"/>
<path d="M135.134 101.279C135.134 101.279 119.359 98.3055 114.912 82.386C110.676 67.2295 113.938 59.3619 118.346 51.1784C121.661 45.008 132.187 36.6798 146.935 39.6664C161.829 42.6792 172.972 50.3364 174.617 62.5852C177.682 85.5041 159.197 113.462 135.134 101.279Z" fill="#39393B"/>
<path d="M115.647 84.8461C115.358 84.8461 115.081 84.7013 114.937 84.425C114.647 83.9251 108.016 71.992 113.529 56.283C116.976 46.4681 123.751 42.087 128.843 40.1266C134.343 38.0084 138.961 38.2189 139.158 38.2189C139.605 38.2452 139.96 38.6268 139.934 39.0872C139.908 39.5346 139.539 39.8898 139.079 39.8635C139.039 39.8635 134.553 39.6793 129.369 41.6791C122.475 44.3499 117.673 49.4415 115.081 56.8224C109.832 71.7947 116.305 83.4909 116.371 83.6093C116.594 84.004 116.463 84.504 116.068 84.7276C115.923 84.8066 115.792 84.8461 115.647 84.8461Z" fill="#FAAF3A"/>
<path d="M165.721 85.0956C165.721 85.0956 170.852 81.0433 172.207 86.4112C173.562 91.7791 169.747 101.318 163.773 98.4233L165.721 85.0956Z" fill="#D96C63"/>
<path d="M160.704 94.9633C158.152 95.8054 155.902 98.0683 155.323 100.871C154.481 105.054 157.192 109.133 161.362 109.988C165.546 110.83 169.625 108.12 170.48 103.949C171.111 100.818 169.756 97.7394 167.27 96.0422C166.441 95.4633 165.48 95.0554 164.428 94.8449C164.401 94.8449 164.375 94.8318 164.349 94.8318C164.204 95.3581 164.257 95.7791 164.559 96.108C165.401 96.3316 166.164 96.7132 166.835 97.2131C168.769 98.6867 169.809 101.173 169.296 103.713C168.585 107.239 165.125 109.528 161.599 108.817C158.073 108.107 155.784 104.647 156.494 101.121C157.021 98.5551 158.915 96.7395 161.296 96.1606L160.704 94.9633Z" fill="#FAAF3A"/>
<path d="M150.165 108.107L148.021 121.553C148.021 121.553 137.956 131.829 119.576 113.396C124.51 109.725 126.391 101.2 125.812 95.7004C125.812 95.7004 127.26 96.5688 129.496 98.5949C129.93 98.9896 130.496 99.2922 131.036 99.6738C135.89 102.963 143.337 107.265 150.165 108.107Z" fill="#EA9B7A"/>
<path d="M150.165 108.108L149.152 114.476C143.639 112.015 133.89 106.766 129.496 98.5823C129.97 98.9243 130.496 99.2796 131.035 99.6611C135.89 102.963 143.337 107.266 150.165 108.108Z" fill="#39393B"/>
<path d="M170.696 81.8599C170.406 83.2808 170.143 84.6359 169.867 85.9253C169.577 87.3199 169.301 88.6356 169.025 89.8723C166.986 99.174 165.315 104.16 162.604 106.029C148.882 115.462 126.555 96.3585 125.832 95.7401C125.818 95.727 125.818 95.727 125.818 95.727C125.805 94.635 125.805 93.543 125.818 92.4773C125.989 83.4255 127.529 75.2947 129.976 67.7823C131.2 59.5725 137.567 52.9942 145.764 51.7575C154.263 50.4813 160.657 55.4019 164.657 57.5727C170.696 60.8619 173.064 70.0058 170.696 81.8599Z" fill="#EA9B7A"/>
<path d="M130.448 59.3358C130.448 59.3358 140.052 40.8639 159.208 46.0213C178.364 51.1787 179.378 60.0726 179.72 64.5195C180.062 68.9665 169.799 61.0856 169.799 61.0856C169.799 61.0856 169.444 69.9795 166.024 67.243C161.827 63.8749 157.143 56.6255 157.143 56.6255C157.143 56.6255 145.736 67.835 134.895 64.809C128.724 63.0986 130.448 59.3358 130.448 59.3358Z" fill="#39393B"/>
<path d="M153.972 99.9769C151.485 99.9769 149.775 98.2534 149.696 98.1613C149.433 97.885 149.433 97.4508 149.709 97.1877C149.985 96.9245 150.406 96.9245 150.669 97.2008C150.761 97.2929 152.735 99.2533 155.34 98.3586C155.695 98.2402 156.09 98.4244 156.208 98.7796C156.327 99.1349 156.142 99.5296 155.787 99.648C155.156 99.8848 154.551 99.9769 153.972 99.9769Z" fill="#D96C63"/>
<path d="M148.25 88.7935C148.25 88.7935 157.486 91.53 162.275 91.53C162.275 91.53 159.88 98.3715 153.039 95.977C147.71 94.1088 148.25 88.7935 148.25 88.7935Z" fill="white"/>
<path d="M165.388 69.5593C165.388 69.5593 162.994 69.3093 163.375 71.6381C163.77 73.9668 168.967 72.5459 171.545 77.2033C171.545 77.2033 174.032 72.3222 165.388 69.5593Z" fill="#39393B"/>
<path d="M154.728 67.4012C154.728 67.4012 157.031 68.1117 155.768 70.0983C154.505 72.085 150.268 68.7563 146.084 72.0455C146.084 72.0455 145.703 66.5855 154.728 67.4012Z" fill="#39393B"/>
<path d="M150.562 84.0701C150.339 85.1621 147.905 85.5963 145.102 85.0306C142.313 84.4648 140.234 83.1229 140.458 82.0177C140.682 80.9257 143.116 80.4915 145.918 81.0573C148.707 81.623 150.786 82.9781 150.562 84.0701Z" fill="#D96C63"/>
<path d="M177.833 84.7921L170.374 83.5159C170.334 83.8316 170.255 84.1474 170.189 84.45C170.176 84.5026 170.163 84.5552 170.137 84.6079L177.649 85.8841C177.952 85.9367 178.241 85.7262 178.294 85.4236C178.346 85.1341 178.149 84.8447 177.833 84.7921Z" fill="white"/>
<path d="M157.903 78.4231C157.903 78.0415 157.89 77.66 157.837 77.2916C157.587 75.2655 156.693 73.3972 155.325 71.95C154.061 70.6212 152.417 69.6476 150.509 69.2266C150.483 69.2134 150.443 69.2134 150.417 69.2002C146.049 68.3056 141.747 70.5949 139.971 74.4892C139.813 74.8313 139.681 75.1734 139.563 75.5286C139.458 75.8443 139.379 76.1733 139.3 76.5022C138.8 78.9493 139.287 81.3701 140.51 83.3436C140.931 84.0146 141.431 84.633 141.997 85.1724C143.234 86.3697 144.799 87.238 146.602 87.6064C149.641 88.2379 152.627 87.3169 154.772 85.3961C156.219 84.1067 157.285 82.3437 157.706 80.3045C157.706 80.2913 157.706 80.2913 157.706 80.2781C157.837 79.6598 157.903 79.0414 157.903 78.4231ZM146.838 86.5144C146.786 86.5012 146.746 86.5012 146.707 86.4881C144.352 85.9618 142.444 84.462 141.326 82.5016C140.365 80.8044 139.984 78.7783 140.405 76.7258C140.497 76.3048 140.615 75.897 140.76 75.5023C140.773 75.476 140.786 75.4497 140.786 75.4234C141.957 72.3842 144.812 70.3186 148.023 70.1344C148.733 70.0949 149.457 70.1344 150.193 70.2923C151.772 70.6212 153.141 71.3711 154.233 72.4105C156.232 74.3182 157.232 77.1863 156.64 80.0808C155.693 84.5541 151.312 87.4485 146.838 86.5144Z" fill="white"/>
<path d="M174.646 74.5826C174.396 74.451 174.133 74.3326 173.857 74.2141C173.541 74.0826 173.212 73.9773 172.883 73.8721C172.646 73.8063 172.423 73.7405 172.173 73.701C171.726 73.6089 171.291 73.5563 170.857 73.53C170.331 73.4905 169.805 73.5037 169.292 73.5695C167.857 73.7274 166.502 74.201 165.305 74.9509C163.989 75.7666 162.871 76.9113 162.108 78.2927C161.898 78.6479 161.726 79.0163 161.569 79.3847C161.555 79.411 161.555 79.4242 161.542 79.4505C161.345 79.9505 161.187 80.4767 161.069 81.0161C160.319 84.6474 161.779 88.226 164.529 90.3574C165.423 91.0547 166.45 91.5941 167.581 91.923C167.752 91.9756 167.923 92.0283 168.107 92.0546C168.2 92.0809 168.278 92.094 168.371 92.1203C169.278 92.3045 170.186 92.3572 171.068 92.2782C171.212 92.2651 171.357 92.2519 171.489 92.2388C171.87 92.1861 172.252 92.1204 172.633 92.0151C173.331 91.8309 174.015 91.5678 174.646 91.2388C177.054 89.9758 178.896 87.6866 179.488 84.8184C180.343 80.6083 178.251 76.4771 174.646 74.5826ZM178.383 84.5816C178.343 84.7658 178.304 84.9368 178.251 85.1079C178.185 85.3578 178.106 85.5947 178.014 85.8446C177.357 87.5945 176.146 89.0154 174.62 89.9495C174.067 90.2916 173.462 90.5679 172.831 90.7784C172.436 90.9099 172.041 91.002 171.62 91.0678C171.502 91.0941 171.383 91.1073 171.265 91.1204C170.397 91.2257 169.489 91.1994 168.581 91.0152C168.502 91.002 168.41 90.9757 168.331 90.9626C168.278 90.9494 168.226 90.9363 168.186 90.9231C166.858 90.581 165.673 89.9232 164.713 89.0417C164.568 88.9101 164.437 88.7786 164.305 88.647C162.476 86.7524 161.582 84.0027 162.147 81.2266C162.279 80.6083 162.476 80.0031 162.726 79.4505C163.555 77.6349 165.002 76.2271 166.752 75.3983C167.831 74.8851 169.028 74.6088 170.265 74.6088C170.462 74.6088 170.66 74.622 170.87 74.6352C171.226 74.6615 171.581 74.7141 171.936 74.7799C172.199 74.8325 172.449 74.8983 172.699 74.9772C173.041 75.0825 173.37 75.2141 173.699 75.3588C173.949 75.4772 174.199 75.6088 174.449 75.7403C177.435 77.4902 179.12 81.003 178.383 84.5816Z" fill="white"/>
<path d="M128.09 76.1913C128.025 76.1782 127.959 76.1518 127.906 76.1124C127.643 75.9413 127.577 75.5993 127.735 75.3493C131.472 69.5077 140.458 74.7573 140.537 74.8099C140.8 74.9678 140.892 75.3098 140.734 75.573C140.576 75.8361 140.234 75.9282 139.971 75.7703C139.892 75.7177 131.827 71.0208 128.669 75.9545C128.551 76.1387 128.314 76.2308 128.09 76.1913Z" fill="white"/>
<path d="M161.943 79.7026C161.798 79.6763 161.679 79.5842 161.587 79.4658C160.39 77.6238 157.838 78.4527 157.811 78.4527C157.522 78.5448 157.206 78.3869 157.114 78.0975C157.022 77.808 157.18 77.4923 157.469 77.4002C158.64 77.0055 161.206 76.8081 162.535 78.8606C162.706 79.1237 162.627 79.4657 162.364 79.6236C162.232 79.7026 162.087 79.7289 161.943 79.7026Z" fill="white"/>
<g opacity="0.8">
<g opacity="0.8">
<g opacity="0.8">
<g opacity="0.8">
<g opacity="0.8">
<g opacity="0.8">
<g opacity="0.8">
<path opacity="0.8" d="M169.862 85.9257C169.572 87.3203 169.296 88.636 169.02 89.8727C166.48 89.2543 164.652 88.0045 164.862 86.9651C165.086 85.9389 167.27 85.4915 169.862 85.9257Z" fill="#D96C63"/>
</g>
</g>
</g>
</g>
</g>
</g>
</g>
<path d="M152.526 78.5575C152.223 80.0705 151.289 81.1494 150.447 80.9783C149.605 80.8073 149.171 79.4521 149.473 77.9391C149.776 76.4261 150.71 75.3473 151.552 75.5183C152.394 75.6893 152.828 77.0445 152.526 78.5575Z" fill="#39393B"/>
<path d="M167.442 81.5843C167.139 83.0974 166.205 84.1762 165.363 84.0052C164.521 83.8341 164.087 82.479 164.389 80.966C164.692 79.453 165.626 78.3741 166.468 78.5452C167.31 78.7162 167.744 80.0713 167.442 81.5843Z" fill="#39393B"/>
<path d="M159.733 85.6365C160.457 85.7812 160.97 85.7549 161.009 85.7549C161.181 85.7418 161.352 85.6628 161.47 85.5313C161.588 85.3997 161.628 85.2155 161.615 85.0445L160.654 78.0057C160.602 77.6636 160.286 77.4136 159.944 77.4662C159.602 77.5189 159.352 77.8346 159.404 78.1767L160.26 84.4524C159.628 84.3603 158.681 84.0972 157.826 83.3867C157.562 83.1631 157.155 83.2026 156.931 83.4657C156.707 83.7288 156.747 84.1367 157.01 84.3603C157.944 85.1234 158.957 85.4786 159.733 85.6365Z" fill="#39393B"/>
<path d="M131.985 90.6096C131.88 90.7675 128.959 94.9645 125.841 95.7276C125.828 95.7144 125.828 95.7144 125.828 95.7144C125.801 94.6224 125.815 93.5304 125.828 92.4647C125.933 92.4779 128.906 92.5568 131.985 90.6096Z" fill="#39393B"/>
<path d="M131.34 79.5824C131.34 79.5824 126.946 70.2675 121.249 75.7275C116.552 80.2402 120.657 95.2914 128.814 92.0681L131.34 79.5824Z" fill="#EA9B7A"/>
<path d="M120.542 87.6225C117.99 88.4645 115.74 90.7275 115.161 93.5299C114.319 97.7137 117.029 101.792 121.2 102.647C125.384 103.489 129.462 100.779 130.318 96.6085C130.949 93.4772 129.594 90.3986 127.107 88.7014C126.279 88.1225 125.318 87.7146 124.266 87.5041C124.239 87.5041 124.213 87.491 124.187 87.491C124.042 88.0172 124.108 88.4382 124.397 88.7672C125.239 88.9908 126.002 89.3724 126.673 89.8723C128.607 91.3459 129.647 93.8325 129.134 96.3717C128.423 99.8977 124.963 102.187 121.437 101.476C117.911 100.766 115.622 97.3058 116.332 93.7798C116.845 91.2143 118.753 89.3987 121.134 88.8198L120.542 87.6225Z" fill="#FAAF3A"/>
<path d="M128.471 89.4765C128.497 89.4765 128.51 89.4896 128.536 89.4896C128.878 89.516 129.194 89.266 129.221 88.9108C129.865 81.872 124.55 78.3065 124.326 78.1618C124.037 77.9644 123.642 78.0565 123.445 78.346C123.247 78.6354 123.339 79.0301 123.629 79.2275C123.826 79.3591 128.536 82.543 127.957 88.8055C127.944 89.1213 128.168 89.4107 128.471 89.4765Z" fill="#39393B"/>
<path d="M123.447 84.5427C123.578 84.569 123.736 84.5559 123.868 84.4769C124.499 84.148 126.354 83.4112 127.367 83.898C127.683 84.0559 128.065 83.9244 128.209 83.6086C128.367 83.2928 128.236 82.9113 127.92 82.7666C126.157 81.9114 123.578 83.2139 123.289 83.3586C122.973 83.5165 122.855 83.898 123.026 84.2138C123.105 84.3848 123.276 84.5032 123.447 84.5427Z" fill="#39393B"/>
<path d="M136.999 63.7814C136.999 63.7814 131.092 79.8194 130.776 83.0559C130.342 87.4634 124.514 72.3596 130.368 59.4661L136.999 63.7814Z" fill="#39393B"/>
<path d="M235.694 403.803H211.368C211.368 403.803 205.737 376.805 203.855 361.675C201.961 346.532 200.987 310.654 200.987 310.654C200.987 310.654 181.607 316.956 141.032 314.574C51.133 309.325 85.2219 243.278 85.2219 243.278C88.2611 247.475 111.048 253.251 123.758 255.264C162.793 259.014 192.462 265.645 212.776 274.407C217.67 276.512 222.012 278.749 225.827 281.104C230.721 284.117 233.787 293.287 235.642 305.325C241.181 341.519 235.694 403.803 235.694 403.803Z" fill="#39393B"/>
<path d="M214.382 390.805C213.974 390.805 213.619 390.516 213.527 390.108C210.014 372.741 208.843 351.125 207.896 333.758C207.106 319.351 206.37 305.747 204.515 304.116C203.015 302.787 196.792 303.827 188.924 305.129C173.254 307.734 149.572 311.655 123.47 305.59C109.247 302.274 98.7877 295.367 92.3936 285.052C81.3552 267.264 86.3942 245.201 86.4468 244.977C86.5521 244.503 87.0257 244.214 87.4993 244.332C87.973 244.437 88.2624 244.911 88.144 245.385C88.0914 245.595 83.2366 266.975 93.8935 284.144C100.038 294.051 110.129 300.695 123.877 303.892C149.651 309.892 173.123 305.997 188.661 303.419C197.963 301.879 203.58 300.945 205.699 302.813C207.988 304.84 208.633 314.786 209.659 333.666C210.606 350.98 211.777 372.517 215.264 389.766C215.356 390.239 215.053 390.7 214.579 390.792C214.5 390.792 214.448 390.805 214.382 390.805Z" fill="#585859"/>
<path d="M236.165 391.252H236.152L209.102 390.673C208.615 390.66 208.233 390.265 208.246 389.778C208.26 389.292 208.654 388.91 209.141 388.923L236.191 389.502C236.678 389.515 237.059 389.91 237.046 390.397C237.02 390.884 236.638 391.252 236.165 391.252Z" fill="#585859"/>
<path d="M235.03 434.972H217.86L214.558 414.829L212.742 403.803H234.069L234.411 414.829L235.03 434.972Z" fill="#EA9B7A"/>
<path d="M235.034 434.972H217.865L215.405 419.973L214.562 414.829H234.416L234.574 420.157L235.034 434.972Z" fill="#FAAF3A"/>
<path d="M234.574 420.157L215.405 419.973L214.562 414.829H234.416L234.574 420.157Z" fill="#C77E2E"/>
<path d="M277.386 462.087H212.445C211.958 461.206 211.695 459.969 211.59 458.483C211.182 452.983 212.932 444.221 213.787 438.695C213.892 438.05 213.985 437.445 214.05 436.906C214.169 435.985 214.248 435.208 214.248 434.643C214.248 430.13 218.234 430.906 218.234 430.906C224.799 437.353 232.246 427.696 236.588 430.854C236.588 430.854 236.759 430.985 237.167 431.288C237.535 431.577 238.087 432.025 238.851 432.669C239.956 433.59 241.508 434.932 243.613 436.827C248.771 441.471 257.533 444.523 264.993 447.641C265.94 448.036 266.822 448.431 267.65 448.839C268.269 449.141 268.861 449.444 269.413 449.733C275.518 453.023 277.452 456.18 277.899 458.469C278.334 460.667 277.386 462.087 277.386 462.087Z" fill="#7E3AF2"/>
<path d="M269.426 449.748C267.755 451.077 264.032 453.747 261.045 453.747C260.914 453.747 260.782 453.748 260.651 453.734C258.546 453.563 250.81 449.761 244.508 446.301C240.903 444.314 237.6 442.367 235.232 440.801C231.351 438.236 230.667 437.262 230.522 436.578C229.956 434.013 234.193 432.236 237.166 431.302C237.534 431.592 238.087 432.039 238.85 432.684C235.166 433.684 232.127 435.262 232.272 436.157C232.64 436.92 236.482 439.841 245.665 444.88C252.678 448.722 259.322 451.813 260.795 451.945C262.795 452.103 265.729 450.287 267.65 448.853C268.295 449.143 268.874 449.445 269.426 449.748Z" fill="#5521B5"/>
<path d="M277.384 462.085H212.443C211.956 461.203 211.693 459.966 211.588 458.48H277.911C278.332 460.664 277.384 462.085 277.384 462.085Z" fill="#5521B5"/>
<path d="M219.086 462.087H217.152C219.073 459.89 220.875 456.508 220.638 451.693C220.323 445.273 216.481 440.957 213.797 438.694C213.902 438.05 213.994 437.444 214.06 436.905C216.941 439.102 221.796 443.931 222.178 451.614C222.414 456.219 220.901 459.653 219.086 462.087Z" fill="#5521B5"/>
<path d="M242.54 440.668C242.067 440.668 241.62 440.339 241.501 439.853C241.356 439.274 241.712 438.695 242.277 438.55L246.33 437.537C246.908 437.392 247.487 437.748 247.632 438.313C247.777 438.892 247.422 439.471 246.856 439.616L242.804 440.629C242.712 440.655 242.619 440.668 242.54 440.668Z" fill="white"/>
<path d="M238.498 437.286C238.011 437.286 237.577 436.957 237.458 436.471C237.313 435.892 237.669 435.313 238.234 435.168L242.287 434.155C242.866 434.01 243.444 434.366 243.589 434.931C243.734 435.51 243.379 436.089 242.813 436.234L238.761 437.247C238.669 437.273 238.59 437.286 238.498 437.286Z" fill="white"/>
<path d="M246.589 443.023C246.116 443.023 245.668 442.694 245.55 442.207C245.405 441.628 245.76 441.049 246.326 440.918L250.378 439.905C250.957 439.76 251.536 440.115 251.681 440.681C251.826 441.26 251.47 441.839 250.905 441.983L246.852 442.996C246.76 443.01 246.668 443.023 246.589 443.023Z" fill="white"/>
<path d="M250.64 445.288C250.166 445.288 249.719 444.959 249.601 444.472C249.456 443.893 249.811 443.314 250.377 443.183L254.429 442.17C255.008 442.025 255.587 442.38 255.732 442.946C255.876 443.525 255.521 444.104 254.955 444.249L250.903 445.262C250.811 445.275 250.732 445.288 250.64 445.288Z" fill="white"/>
<path d="M255.066 447.378C254.592 447.378 254.145 447.049 254.026 446.563C253.882 445.984 254.237 445.405 254.803 445.273L258.855 444.26C259.434 444.115 260.013 444.471 260.157 445.036C260.302 445.615 259.947 446.194 259.381 446.339L255.329 447.352C255.237 447.378 255.158 447.378 255.066 447.378Z" fill="white"/>
<path d="M259.873 449.165C259.386 449.165 258.952 448.836 258.833 448.35C258.688 447.771 259.044 447.192 259.609 447.047L263.662 446.034C264.241 445.889 264.819 446.245 264.964 446.81C265.109 447.389 264.754 447.968 264.188 448.113L260.136 449.126C260.044 449.152 259.951 449.165 259.873 449.165Z" fill="white"/>
<path d="M325.306 242.302V247.697C325.306 250.802 323.438 253.315 321.123 253.315H29.7424C27.4268 253.315 25.5586 250.802 25.5586 247.697V242.302C25.5586 239.197 27.4268 236.685 29.7424 236.685H321.109C323.425 236.685 325.306 239.197 325.306 242.302Z" fill="#21B573"/>
<path d="M325.306 244.014H25.5586V246.488H325.306V244.014Z" fill="#217C58"/>
<path d="M316.541 267.17H42.659C41.4354 267.17 40.4355 266.17 40.4355 264.946V253.237H318.764V264.946C318.764 266.17 317.764 267.17 316.541 267.17Z" fill="#217C58"/>
<path d="M304.232 335.9H59.2949V345.452H304.232V335.9Z" fill="#217C58"/>
<path d="M41.6504 463.783L89.067 267.17H72.4107L24.9941 463.783H41.6504Z" fill="#21B573"/>
<path d="M321.576 463.783L274.146 267.17H290.803L338.219 463.783H321.576Z" fill="#21B573"/>
<path d="M52.141 191.502L47.0039 192.289L52.9418 231.057L58.0789 230.271L52.141 191.502Z" fill="#FAAF3A"/>
<path d="M52.1526 191.48L47.0215 192.27L48.153 188.349L48.7319 186.31L49.9028 188.073L52.1526 191.48Z" fill="#EA9B7A"/>
<path d="M57.6449 227.447L52.5078 228.234L52.9401 231.056L58.0772 230.269L57.6449 227.447Z" fill="#39393B"/>
<path d="M58.0993 232.542L53.6392 233.227C53.455 233.253 53.2708 233.121 53.2445 232.937L52.9551 231.029L58.0993 230.24L58.3888 232.148C58.4151 232.345 58.2835 232.516 58.0993 232.542Z" fill="#DF615C"/>
<path d="M49.9002 188.073L48.1504 188.349L48.7293 186.31L49.9002 188.073Z" fill="#39393B"/>
<path d="M57.35 225.421L52.2129 226.208L52.5216 228.224L57.6588 227.437L57.35 225.421Z" fill="#C77E2E"/>
<path d="M48.5901 193.98L52.9844 222.688C53.0238 222.911 53.2212 223.056 53.4317 223.017C53.6422 222.977 53.8001 222.78 53.7606 222.569L49.3663 193.862C49.3268 193.651 49.1295 193.493 48.919 193.533C48.7085 193.559 48.5506 193.769 48.5901 193.98Z" fill="#C77E2E"/>
<path d="M50.6018 193.678L54.9961 222.386C55.0356 222.597 55.2329 222.754 55.4434 222.715C55.6671 222.675 55.8118 222.478 55.7723 222.268L51.378 193.56C51.3386 193.349 51.1412 193.191 50.9307 193.231C50.7202 193.257 50.5623 193.455 50.6018 193.678Z" fill="#C77E2E"/>
<path d="M61.4547 191.657L56.2578 191.674L56.3868 230.894L61.5836 230.877L61.4547 191.657Z" fill="#21B573"/>
<path d="M61.4547 191.664L56.2578 191.677L57.955 187.967L58.8365 186.033L59.7312 187.954L61.4547 191.664Z" fill="#EA9B7A"/>
<path d="M61.566 228.035L56.3691 228.052L56.3785 230.907L61.5754 230.89L61.566 228.035Z" fill="#39393B"/>
<path d="M61.2474 233.146L56.7347 233.16C56.5373 233.16 56.3926 233.002 56.3926 232.818V230.897L61.5894 230.884V232.804C61.5894 232.989 61.4447 233.146 61.2474 233.146Z" fill="#DF615C"/>
<path d="M59.7312 187.954L57.9551 187.967L58.8366 186.033L59.7312 187.954Z" fill="#39393B"/>
<path d="M61.5543 225.984L56.3574 226.001L56.3641 228.04L61.561 228.023L61.5543 225.984Z" fill="#217C58"/>
<path d="M57.5508 193.611L57.6429 222.648C57.6429 222.872 57.8271 223.043 58.0376 223.043C58.2612 223.043 58.4323 222.858 58.4323 222.648L58.3402 193.611C58.3402 193.388 58.156 193.216 57.9455 193.216C57.735 193.203 57.5508 193.388 57.5508 193.611Z" fill="#217C58"/>
<path d="M59.5898 193.598L59.6819 222.635C59.6819 222.858 59.8661 223.029 60.0766 223.029C60.3003 223.029 60.4713 222.845 60.4713 222.635L60.3792 193.598C60.3792 193.374 60.1951 193.203 59.9845 193.203C59.774 193.203 59.5898 193.374 59.5898 193.598Z" fill="#217C58"/>
<path d="M65.2936 191.464L59.7793 230.296L64.9247 231.026L70.4391 192.195L65.2936 191.464Z" fill="#0875F7"/>
<path d="M70.4314 192.216L65.2871 191.479L67.4974 188.045L68.6552 186.269L69.2604 188.295L70.4314 192.216Z" fill="#EA9B7A"/>
<path d="M65.3368 228.234L60.1914 227.504L59.79 230.33L64.9354 231.061L65.3368 228.234Z" fill="#39393B"/>
<path d="M64.2607 233.238L59.8006 232.607C59.6164 232.581 59.4849 232.409 59.5112 232.212L59.7875 230.304L64.9317 231.041L64.6554 232.949C64.6159 233.133 64.4449 233.265 64.2607 233.238Z" fill="#DF615C"/>
<path d="M69.2552 188.295L67.4922 188.045L68.65 186.269L69.2552 188.295Z" fill="#39393B"/>
<path d="M60.4705 225.462L60.1836 227.481L65.329 228.212L65.616 226.193L60.4705 225.462Z" fill="#084FC7"/>
<path d="M66.2887 193.572L62.2101 222.319C62.1838 222.543 62.3285 222.74 62.5522 222.767C62.7758 222.793 62.9732 222.648 62.9995 222.424L67.0781 193.677C67.1044 193.454 66.9597 193.256 66.736 193.23C66.5255 193.204 66.3281 193.361 66.2887 193.572Z" fill="#084FC7"/>
<path d="M68.3102 193.862L64.2316 222.609C64.2053 222.832 64.35 223.03 64.5737 223.056C64.7973 223.082 64.9947 222.938 65.021 222.714L69.0995 193.967C69.1259 193.743 68.9811 193.546 68.7575 193.519C68.5338 193.493 68.3365 193.638 68.3102 193.862Z" fill="#084FC7"/>
<path d="M72.1256 207.176L71.8493 209.281L71.5994 211.189L71.231 214.084L70.981 215.978L70.6126 218.899L70.3626 220.767L69.9811 223.714L69.7443 225.556L69.3627 228.53L69.1259 230.345L68.7444 233.345L68.5075 235.134L68.3102 236.687H47.8648L47.6674 235.134L47.4306 233.345L47.0491 230.345L46.8122 228.53L46.4307 225.556L46.1939 223.714L45.8123 220.767L45.5755 218.899L45.194 215.978L44.9572 214.084L44.5756 211.189L44.3256 209.281L44.0625 207.176H72.1256Z" fill="#DF615C"/>
<path d="M71.8538 209.282L71.6038 211.189H44.58L44.3301 209.282H71.8538Z" fill="#B11722"/>
<path d="M71.2289 214.083L70.9789 215.978H45.1919L44.9551 214.083H71.2289Z" fill="#B11722"/>
<path d="M70.6133 218.899L70.3633 220.767H45.813L45.5762 218.899H70.6133Z" fill="#B11722"/>
<path d="M69.9845 223.713L69.7477 225.555H46.4341L46.1973 223.713H69.9845Z" fill="#B11722"/>
<path d="M69.361 228.529L69.1242 230.344H47.0474L46.8105 228.529H69.361Z" fill="#B11722"/>
<path d="M68.7474 233.345L68.5105 235.134H47.6704L47.4336 233.345H68.7474Z" fill="#B11722"/>
<path d="M323.6 132.421L306.168 206.151L305.707 208.085L304.536 213.045C304.023 215.203 302.115 216.716 299.905 216.716H182.456C179.377 216.716 177.114 213.848 177.825 210.861L196.889 130.224C197.402 128.08 199.309 126.567 201.52 126.567H318.956C322.035 126.567 324.298 129.435 323.6 132.421Z" fill="#39393B"/>
<path d="M306.156 206.138L305.709 208.085H183.76V206.138H306.156Z" fill="#585859"/>
<path d="M229.785 144.8C228.811 150.023 223.786 154.26 218.562 154.26C213.339 154.26 209.892 150.023 210.866 144.8C211.839 139.577 216.865 135.341 222.088 135.341C227.325 135.341 230.759 139.577 229.785 144.8Z" fill="#FAAF3A"/>
<path d="M219.107 143C218.91 144.04 218.384 144.895 217.936 144.895C217.476 144.895 217.265 144.053 217.463 143C217.66 141.961 218.186 141.106 218.634 141.106C219.094 141.106 219.305 141.948 219.107 143Z" fill="#39393B"/>
<path d="M224.029 143C223.832 144.04 223.306 144.895 222.858 144.895C222.411 144.895 222.187 144.053 222.385 143C222.582 141.961 223.108 141.106 223.556 141.106C224.016 141.106 224.227 141.948 224.029 143Z" fill="#39393B"/>
<path d="M219.546 149.42C215.48 149.42 215.309 145.354 215.309 145.315C215.296 145.091 215.48 144.867 215.717 144.828C215.954 144.775 216.138 144.92 216.151 145.144C216.151 145.288 216.309 148.604 219.717 148.604C223.111 148.604 224.506 145.288 224.572 145.144C224.664 144.92 224.914 144.788 225.124 144.828C225.335 144.881 225.44 145.091 225.348 145.315C225.308 145.341 223.611 149.42 219.546 149.42Z" fill="#39393B"/>
<path d="M284.074 188.981C284.179 193.876 292.468 200.007 292.468 200.007C292.468 200.007 302.098 193.876 303.269 188.981C304.532 183.679 298.48 182.048 293.994 186.047C290.376 182.048 283.955 183.679 284.074 188.981Z" fill="#DF615C"/>
<path d="M266.53 174.784C265.964 179.863 261.399 183.968 256.333 183.968C251.268 183.968 247.597 179.85 248.163 174.784C248.729 169.706 253.294 165.601 258.359 165.601C263.438 165.601 267.095 169.719 266.53 174.784Z" fill="#585859"/>
<path d="M206.173 126.568L185.873 216.717H182.452C179.373 216.717 177.11 213.849 177.821 210.863L196.885 130.226C197.398 128.081 199.306 126.555 201.516 126.555H206.173V126.568Z" fill="#585859"/>
<path d="M240.189 216.716L236.623 236.754H248.398L251.964 216.716H240.189Z" fill="white"/>
<path d="M219.019 233.307L221.427 229.925C222.282 228.715 223.677 228.005 225.164 228.005H257.424C259.134 228.005 260.7 228.952 261.489 230.465L263.107 233.57C263.87 235.017 262.818 236.767 261.173 236.767H220.796C219.019 236.754 217.993 234.741 219.019 233.307Z" fill="white"/>
<path d="M151.803 236.74H248.715L249.767 233.083C250.425 230.78 248.701 228.491 246.307 228.491H156.881C155.276 228.491 153.868 229.557 153.421 231.096L151.803 236.74Z" fill="white"/>
<path d="M278.869 102.489L236.005 102.463C234.347 102.463 232.992 101.108 232.992 99.4499L233.005 73.1103C233.005 71.4525 234.36 70.0974 236.018 70.0974L278.883 70.1237C280.54 70.1237 281.895 71.4789 281.895 73.1366L281.882 99.4762C281.882 101.147 280.54 102.489 278.869 102.489Z" fill="#DF615C"/>
<path d="M276.318 97.6345L272.41 112.396L265.582 98.516L276.318 97.6345Z" fill="#DF615C"/>
<path d="M268.282 83.9125C267.414 89.4383 257.086 96.3587 257.086 96.3587C257.086 96.3587 247.152 89.4252 246.587 83.8862C245.968 77.8868 253.073 76.058 257.533 80.5839C262.23 76.0712 269.229 77.9131 268.282 83.9125Z" fill="white"/>
<path d="M346.007 487.575C386.32 487.575 419 484.347 419 480.365C419 476.383 386.32 473.155 346.007 473.155C305.694 473.155 273.014 476.383 273.014 480.365C273.014 484.347 305.694 487.575 346.007 487.575Z" fill="#CED3E6"/>
<path d="M390.701 428.225H298.552C296.802 428.225 295.381 426.805 295.381 425.055V423.594C295.381 421.845 296.802 420.424 298.552 420.424H390.701C392.451 420.424 393.871 421.845 393.871 423.594V425.055C393.871 426.805 392.451 428.225 390.701 428.225Z" fill="#39393B"/>
<path d="M299.708 333.997H389.739C391.239 333.997 392.45 335.208 392.45 336.708V347.772C392.45 349.272 391.239 350.483 389.739 350.483H299.708C298.208 350.483 296.998 349.272 296.998 347.772V336.708C296.998 335.208 298.208 333.997 299.708 333.997Z" fill="#585859"/>
<path d="M320.969 263.873C320.969 263.873 283.012 256.373 272.421 229.889C261.83 203.405 300.563 183.538 320.969 197.76C342.809 212.97 320.969 263.873 320.969 263.873Z" fill="#21B573"/>
<path d="M343.547 333.458C343.218 333.458 342.915 333.208 342.863 332.866C339.231 308.263 324.562 272.872 312.918 247.519C300.274 220.022 288.355 198.076 288.236 197.853C288.052 197.524 288.184 197.103 288.512 196.919C288.841 196.734 289.262 196.866 289.447 197.195C289.565 197.418 301.511 219.403 314.181 246.94C325.877 272.385 340.586 307.908 344.244 332.669C344.297 333.05 344.047 333.392 343.665 333.445C343.612 333.445 343.573 333.458 343.547 333.458Z" fill="#39393B"/>
<path d="M319.549 261.307C319.299 261.307 319.062 261.176 318.944 260.952C302.432 230.205 275.619 207.891 275.356 207.668C275.066 207.431 275.027 206.997 275.264 206.707C275.501 206.418 275.935 206.378 276.224 206.615C276.5 206.839 303.511 229.31 320.154 260.307C320.338 260.636 320.207 261.057 319.878 261.241C319.759 261.281 319.654 261.307 319.549 261.307Z" fill="#39393B"/>
<path d="M320.3 263.518C320.103 263.518 319.919 263.439 319.774 263.281C307.735 249.111 295.395 240.296 287.172 235.402C278.251 230.1 272.107 228.113 272.055 228.1C271.699 227.982 271.489 227.6 271.607 227.232C271.726 226.876 272.107 226.666 272.476 226.784C272.726 226.863 278.804 228.81 287.843 234.192C296.171 239.138 308.657 248.059 320.826 262.386C321.076 262.676 321.037 263.11 320.747 263.36C320.616 263.465 320.445 263.518 320.3 263.518Z" fill="#39393B"/>
<path d="M316.958 255.453C316.668 255.453 316.405 255.269 316.313 254.992C307.051 227.824 310.458 194.814 310.498 194.485C310.537 194.103 310.879 193.84 311.248 193.88C311.629 193.919 311.892 194.261 311.853 194.63C311.813 194.959 308.445 227.679 317.602 254.545C317.721 254.9 317.537 255.295 317.168 255.413C317.102 255.44 317.023 255.453 316.958 255.453Z" fill="#39393B"/>
<path d="M319.284 260.834C318.955 260.834 318.666 260.597 318.613 260.255C315.785 243.059 317.955 229.034 320.284 220.298C322.81 210.812 325.968 205.47 326.099 205.247C326.297 204.918 326.718 204.813 327.047 205.01C327.376 205.207 327.481 205.628 327.283 205.957C327.257 206.01 324.073 211.391 321.6 220.719C319.324 229.31 317.192 243.125 319.968 260.044C320.034 260.412 319.771 260.768 319.403 260.834C319.35 260.82 319.31 260.834 319.284 260.834Z" fill="#39393B"/>
<path d="M361.006 270.793C361.006 270.793 399.345 265.543 411.488 239.743C423.632 213.93 386.135 191.814 364.927 204.799C342.219 218.693 361.006 270.793 361.006 270.793Z" fill="#21B573"/>
<path d="M346.466 331.209C346.084 331.209 345.768 330.893 345.782 330.511C345.926 317.842 348.689 303.409 353.991 287.621C358.228 275.004 364.069 261.492 371.385 247.467C383.818 223.587 396.343 206.234 396.474 206.063C396.698 205.76 397.132 205.681 397.435 205.905C397.737 206.129 397.816 206.563 397.593 206.865C397.474 207.036 385.002 224.324 372.608 248.111C361.188 270.044 347.505 302.133 347.176 330.525C347.15 330.906 346.847 331.209 346.466 331.209Z" fill="#39393B"/>
<path d="M362.623 268.32C362.505 268.32 362.373 268.293 362.268 268.214C361.939 268.017 361.847 267.596 362.044 267.267C380.49 237.309 408.79 216.469 409.08 216.259C409.382 216.035 409.816 216.101 410.04 216.404C410.264 216.706 410.198 217.14 409.895 217.364C409.619 217.574 381.53 238.257 363.229 267.978C363.084 268.201 362.86 268.32 362.623 268.32Z" fill="#39393B"/>
<path d="M361.744 270.477C361.573 270.477 361.402 270.411 361.27 270.293C360.994 270.029 360.981 269.595 361.244 269.319C374.256 255.728 387.242 247.571 395.846 243.124C405.187 238.296 411.358 236.704 411.621 236.638C411.989 236.546 412.358 236.769 412.45 237.138C412.542 237.506 412.318 237.875 411.95 237.967C411.884 237.98 405.635 239.598 396.425 244.361C387.926 248.755 375.098 256.833 362.231 270.266C362.112 270.398 361.928 270.477 361.744 270.477Z" fill="#39393B"/>
<path d="M365.558 262.623C365.466 262.623 365.387 262.61 365.295 262.57C364.94 262.426 364.782 262.031 364.913 261.676C375.649 235.389 374.215 202.537 374.202 202.208C374.189 201.826 374.478 201.51 374.86 201.484C375.228 201.458 375.557 201.76 375.583 202.142C375.596 202.471 377.044 235.625 366.203 262.202C366.084 262.465 365.834 262.623 365.558 262.623Z" fill="#39393B"/>
<path d="M362.914 267.859C362.862 267.859 362.809 267.859 362.757 267.846C362.388 267.767 362.151 267.398 362.243 267.03C366.033 250.295 364.717 236.388 362.954 227.679C361.033 218.232 358.191 212.667 358.165 212.601C357.994 212.259 358.125 211.851 358.454 211.68C358.796 211.509 359.204 211.641 359.375 211.97C359.494 212.193 362.322 217.719 364.283 227.35C366.085 236.217 367.427 250.347 363.585 267.333C363.52 267.635 363.23 267.859 362.914 267.859Z" fill="#39393B"/>
<path d="M346.24 220.85C346.24 220.85 313.756 199.826 313.717 171.303C313.677 142.779 357.015 138.674 370.711 159.435C385.381 181.657 346.24 220.85 346.24 220.85Z" fill="#21B573"/>
<path d="M341.702 293.883C341.65 293.883 341.597 293.883 341.544 293.87C341.176 293.778 340.952 293.41 341.031 293.041C346.767 268.846 346.254 230.534 344.82 202.668C343.268 172.447 340.308 147.634 340.281 147.397C340.242 147.016 340.505 146.674 340.886 146.634C341.255 146.595 341.61 146.858 341.65 147.239C341.676 147.489 344.636 172.342 346.202 202.602C347.649 230.56 348.149 269.004 342.386 293.357C342.294 293.673 342.018 293.883 341.702 293.883Z" fill="#39393B"/>
<path d="M346.122 217.995C345.78 217.995 345.477 217.732 345.437 217.39C341.49 182.709 324.847 152.054 324.676 151.752C324.492 151.423 324.61 151.002 324.953 150.818C325.281 150.633 325.703 150.752 325.887 151.094C326.058 151.397 342.832 182.288 346.806 217.246C346.845 217.627 346.582 217.969 346.201 218.009C346.174 217.995 346.148 217.995 346.122 217.995Z" fill="#39393B"/>
<path d="M346.007 220.31C345.717 220.31 345.454 220.126 345.362 219.837C339.428 202.207 331.232 189.458 325.404 181.866C319.088 173.63 314.115 169.526 314.063 169.486C313.773 169.249 313.72 168.815 313.97 168.526C314.207 168.236 314.641 168.184 314.931 168.434C315.141 168.605 320.049 172.657 326.456 180.998C332.363 188.682 340.652 201.575 346.652 219.402C346.77 219.758 346.586 220.152 346.217 220.271C346.152 220.297 346.086 220.31 346.007 220.31Z" fill="#39393B"/>
<path d="M345.885 211.588C345.872 211.588 345.859 211.588 345.846 211.588C345.464 211.575 345.175 211.246 345.201 210.864C346.661 182.209 362.055 152.804 362.199 152.502C362.383 152.159 362.791 152.041 363.133 152.212C363.475 152.383 363.594 152.804 363.423 153.146C363.265 153.436 348.016 182.578 346.582 210.93C346.556 211.299 346.253 211.588 345.885 211.588Z" fill="#39393B"/>
<path d="M346.057 217.443C346.005 217.443 345.965 217.443 345.913 217.43C345.544 217.351 345.307 216.982 345.386 216.614C349.123 199.589 356.359 187.275 361.779 179.933C367.661 171.96 372.581 168.079 372.792 167.921C373.094 167.685 373.528 167.737 373.752 168.04C373.989 168.342 373.936 168.777 373.634 169C373.581 169.04 368.621 172.96 362.845 180.789C357.517 188.012 350.399 200.142 346.728 216.904C346.662 217.232 346.373 217.443 346.057 217.443Z" fill="#39393B"/>
<path d="M385.938 290.199L384.807 293.199L384.096 295.106L382.044 300.553L381.32 302.461L379.215 308.066L378.505 309.96L369.453 333.984H320.011L310.959 309.96L310.248 308.066L308.143 302.461L307.42 300.553L305.367 295.106L304.657 293.199L303.525 290.199C302.749 288.133 304.275 285.936 306.472 285.936H383.004C385.188 285.936 386.715 288.133 385.938 290.199Z" fill="#7E3AF2"/>
<path d="M384.804 293.199L384.094 295.106H305.364L304.641 293.199H384.804Z" fill="#5521B5"/>
<path d="M382.027 300.554L381.317 302.461H308.126L307.416 300.554H382.027Z" fill="#5521B5"/>
<path d="M379.202 308.065L378.492 309.96H310.959L310.248 308.065H379.202Z" fill="#5521B5"/>
<path d="M331.481 350.469L328.744 359.31L290.577 482.325H283.117L307.312 361.823L309.602 350.469H331.481Z" fill="#39393B"/>
<path d="M406.553 482.325H399.093L359.808 355.666L358.189 350.469H380.069L380.622 353.232L406.553 482.325Z" fill="#39393B"/>
<path d="M390.701 411.266H298.552C296.802 411.266 295.381 409.846 295.381 408.096V406.635C295.381 404.885 296.802 403.465 298.552 403.465H390.688C392.437 403.465 393.858 404.885 393.858 406.635V408.096C393.871 409.846 392.451 411.266 390.701 411.266Z" fill="#585859"/>
<path d="M237.868 75.0456C257.574 75.0456 273.549 59.271 273.549 39.8121C273.549 20.3532 257.574 4.57861 237.868 4.57861C218.162 4.57861 202.188 20.3532 202.188 39.8121C202.188 59.271 218.162 75.0456 237.868 75.0456Z" fill="#CED3E6"/>
<path d="M237.868 70.467C257.574 70.467 273.549 54.6924 273.549 35.2335C273.549 15.7746 257.574 0 237.868 0C218.162 0 202.188 15.7746 202.188 35.2335C202.188 54.6924 218.162 70.467 237.868 70.467Z" fill="#7E3AF2"/>
<path d="M237.868 63.8753C253.883 63.8753 266.866 51.0519 266.866 35.2333C266.866 19.4148 253.883 6.59131 237.868 6.59131C221.854 6.59131 208.871 19.4148 208.871 35.2333C208.871 51.0519 221.854 63.8753 237.868 63.8753Z" fill="white"/>
<path d="M266.865 35.2338C266.865 35.9969 266.838 36.7468 266.772 37.4968C265.602 22.7613 253.076 11.1177 237.854 11.1177C222.632 11.1177 210.12 22.7613 208.936 37.4968C208.883 36.7468 208.844 35.9969 208.844 35.2338C208.844 19.4327 221.856 6.5918 237.841 6.5918C253.853 6.5918 266.865 19.4327 266.865 35.2338Z" fill="#CED3E6"/>
<path d="M237.867 38.2069C237.644 38.2069 237.42 38.1016 237.288 37.9174L223.066 18.9982C222.829 18.6824 222.895 18.2351 223.211 17.9983C223.527 17.7615 223.987 17.8272 224.224 18.143L238.104 36.6018L253.879 29.7603C254.247 29.6024 254.668 29.7603 254.839 30.1287C254.997 30.4971 254.839 30.9181 254.471 31.076L238.17 38.1411C238.065 38.1937 237.959 38.2069 237.867 38.2069Z" fill="#39393B"/>
</svg>
